<?xml version="1.0" encoding="utf-8"?><svg viewBox="0 0 24 24" xmlns="http://www.w3.org/2000/svg" xmlns:xlink="http://www.w3.org/1999/xlink"><style>:root>svg{display:none}:root>svg:target{display:block}</style><svg fill="none" viewBox="0 0 17 8" id="arrow-next" xmlns="http://www.w3.org/2000/svg"><path d="M16.354 4.354a.5.5 0 000-.708L13.172.464a.5.5 0 10-.708.708L15.293 4l-2.829 2.828a.5.5 0 10.708.708l3.182-3.182zM0 4.5h16v-1H0v1z" fill="currentColor"/></svg><svg fill="none" viewBox="0 0 17 8" id="arrow-prev" xmlns="http://www.w3.org/2000/svg"><path d="M.646 4.354a.5.5 0 010-.708L3.828.464a.5.5 0 11.708.708L1.707 4l2.829 2.828a.5.5 0 11-.708.708L.646 4.354zM17 4.5H1v-1h16v1z" fill="currentColor"/></svg><svg fill="none" viewBox="0 0 20 20" id="bag" xmlns="http://www.w3.org/2000/svg"><rect x="2" y="5" width="16" height="13" rx="1" fill="transparent"/><mask id="ca" fill="transparent"><rect x="2" y="5" width="16" height="13" rx="1"/></mask><rect x="2" y="5" width="16" height="13" rx="1" stroke="currentColor" mask="url(#ca)"/><path d="M6 9V6a4 4 0 014-4v0a4 4 0 014 4v3" stroke="currentColor"/></svg><svg fill="none" viewBox="0 0 24 24" id="burger-close" xmlns="http://www.w3.org/2000/svg"><rect x="4.575" y="2.954" width="24" height="3" rx="1.5" transform="rotate(45 4.575 2.954)" fill="currentColor"/><rect x="21.546" y="5.075" width="24" height="3" rx="1.5" transform="rotate(135 21.546 5.075)" fill="currentColor"/></svg><svg fill="none" viewBox="0 0 24 24" id="burger-open" xmlns="http://www.w3.org/2000/svg"><rect width="24" height="3" rx="1.5" fill="currentColor"/><rect y="21" width="24" height="3" rx="1.5" fill="currentColor"/><rect y="11" width="24" height="3" rx="1.5" fill="currentColor"/></svg><svg fill="none" viewBox="0 0 20 20" id="chart" xmlns="http://www.w3.org/2000/svg"><path stroke="currentColor" stroke-width="2.2" d="M5.1 10v7M10.1 2v15M15.1 5v12"/></svg><svg fill="none" viewBox="0 0 24 24" id="eyes" xmlns="http://www.w3.org/2000/svg"><path fill-rule="evenodd" clip-rule="evenodd" d="M13.004 3.5a1 1 0 10-2 0v2.05c-.96.096-1.876.327-2.73.658l-.83-1.158A1 1 0 105.82 6.215l.639.892c-.531.325-1.024.686-1.473 1.07C3.248 9.666 2 11.668 2 13.5c0 1.832 1.248 3.834 2.985 5.323C6.762 20.345 9.235 21.5 12 21.5c2.764 0 5.238-1.154 7.015-2.676C20.752 17.335 22 15.333 22 13.5c0-1.833-1.248-3.836-2.985-5.324-.33-.283-.684-.552-1.06-.804l.67-.934A1 1 0 1017 5.273L16.192 6.4a10.556 10.556 0 00-3.188-.85V3.5zM12 9.5a4 4 0 100 8 4 4 0 000-8z" fill="currentColor"/></svg><svg fill="none" viewBox="0 0 20 20" id="favorite" xmlns="http://www.w3.org/2000/svg"><path d="M10 17.5c-.538-.477-1.145-.973-1.788-1.5h-.008c-2.262-1.85-4.827-3.943-5.959-6.452A6.185 6.185 0 011.667 7 4.492 4.492 0 016.25 2.5a5.132 5.132 0 012.773.82c.364.235.692.52.977.847.286-.326.615-.61.977-.848A5.127 5.127 0 0113.75 2.5 4.492 4.492 0 0118.333 7a6.186 6.186 0 01-.578 2.552c-1.133 2.509-3.696 4.601-5.958 6.448l-.009.007c-.643.524-1.25 1.02-1.787 1.5L10 17.5zM6.25 4.167a2.946 2.946 0 00-2.083.826A2.785 2.785 0 003.333 7c.01.642.155 1.275.427 1.857a10.264 10.264 0 002.13 2.893c.827.833 1.777 1.64 2.598 2.318l.691.566.146.12.675.554.01-.01.006-.004h.005l.007-.006H10.037l.015-.012.034-.028.006-.005.009-.006h.005l.007-.007.554-.454.145-.12c.234-.19.466-.38.693-.567.822-.678 1.772-1.484 2.598-2.322a10.25 10.25 0 002.131-2.892A4.531 4.531 0 0016.667 7a2.786 2.786 0 00-.834-2 2.946 2.946 0 00-2.083-.833 3.323 3.323 0 00-2.492 1.092L10 6.71 8.742 5.26A3.323 3.323 0 006.25 4.167z" fill="currentColor"/></svg><svg fill="none" viewBox="0 0 24 24" id="like" xmlns="http://www.w3.org/2000/svg"><path d="M2 8.4A5.4 5.4 0 017.5 3 5.991 5.991 0 0112 5a5.991 5.991 0 014.5-2A5.4 5.4 0 0122 8.4c0 5.356-6.379 9.4-10 12.6C8.387 17.773 2 13.76 2 8.4z" fill="currentColor"/></svg><svg fill="none" viewBox="0 0 10 16" id="product-day-next" xmlns="http://www.w3.org/2000/svg"><path d="M1.071 1l7.071 7.071-7.071 7.071" stroke="currentColor" stroke-width="2"/></svg><svg fill="none" viewBox="0 0 11 16" id="product-day-prev" xmlns="http://www.w3.org/2000/svg"><path d="M9.335 15.137l-7.33-6.802 6.802-7.33" stroke="currentColor" stroke-width="2"/></svg><svg fill="none" viewBox="0 0 18 18" id="question" xmlns="http://www.w3.org/2000/svg"><circle cx="9" cy="9" r="9" fill="currentColor"/><path d="M8.25 10.49h1.219v-.08c.017-.981.298-1.42 1.023-1.867.762-.46 1.231-1.108 1.231-2.067 0-1.385-1.048-2.323-2.612-2.323-1.436 0-2.587.84-2.642 2.374h1.295c.051-.903.695-1.3 1.347-1.3.724 0 1.312.482 1.312 1.236 0 .635-.396 1.082-.903 1.398-.793.486-1.261.967-1.27 2.548v.081zm.643 2.591c.465 0 .853-.38.853-.852a.857.857 0 00-.853-.848.854.854 0 00-.852.848c0 .473.384.852.852.852z" fill="#303030"/></svg><svg fill="none" viewBox="0 0 16 16" id="search" xmlns="http://www.w3.org/2000/svg"><path fill-rule="evenodd" clip-rule="evenodd" d="M11.2 6.5a4.7 4.7 0 11-9.4 0 4.7 4.7 0 019.4 0zm-1.138 5.438a6.5 6.5 0 111.299-1.123l3.912 3.912L14 16l-4-4 .062-.062z" fill="currentColor"/></svg><svg fill="none" viewBox="0 0 20 20" id="share-one" xmlns="http://www.w3.org/2000/svg"><path fill-rule="evenodd" clip-rule="evenodd" d="M11.667 4.583a2.917 2.917 0 11.837 2.045l-4.276 2.59a2.92 2.92 0 01.02 1.487l4.353 2.572a2.917 2.917 0 11-.848 1.434L7.398 12.14a2.917 2.917 0 11-.059-4.332l4.382-2.654a2.936 2.936 0 01-.055-.57zm2.916-1.25a1.25 1.25 0 100 2.5 1.25 1.25 0 000-2.5zM5.417 8.75a1.25 1.25 0 100 2.5 1.25 1.25 0 000-2.5zm9.166 5.417a1.25 1.25 0 100 2.5 1.25 1.25 0 000-2.5z" fill="currentColor"/></svg></svg>